<svg fill="none" height="22" viewBox="0 0 22 22" width="22" xmlns="http://www.w3.org/2000/svg"><ellipse cx="11" cy="11" fill="#000" fill-opacity=".2" rx="11" ry="11"/><path d="m10.84285925 5.5c-1.16286 0-2.07429.330001-2.75.990001-.647351.617929-.9778861 1.456239-1.01739843 2.514959-.00453147.12141.09183863.21933.21334143.21933h1.356687c.1215 0 .21672-.09952.22233-.22089.02565-.55568.15131-.99902.3879-1.31911.29857-.44.78571-.64429 1.47714-.64429.53428 0 .95857.14143 1.25714.44.28286.29857.44.70714.44 1.22571 0 .39286-.14143.77-.42428 1.11572 0 0-.18858.22-.18858.22-1.02142.91143-1.63428 1.57143-1.83857 1.99571-.22.42429-.31428.94286-.31428 1.54v.00026c0 .12151.09777.21975.21928.21975.34754-.00001 1.02103-.00001 1.36858-.00001.1215.00001.21928-.09823.21928-.21973 0-.00018 0-.00027 0-.00027 0-.37714.07857-.70714.23571-1.02142.14143-.28286.34572-.55.62858-.78572.75428-.66 1.21-1.08429 1.35142-1.24143.37715-.50286.58143-1.14714.58143-1.93286 0-.95857-.31428-1.71285-.94285-2.262852-.62857-.565715-1.46143-.832858-2.48286-.832858zm-.28286 9.06714c-.34571 0-.62857.11001-.86428.33-.23572.22-.34572.50286-.34572.84856s.11.6286.34572.8486c.23571.22.51857.3457.86428.3457.34572 0 .62857-.11.86429-.33.23571-.22.36143-.5186.36143-.8643s-.12572-.62856-.34572-.84856c-.23571-.21999-.53428-.33-.88-.33z" fill="#fff"/></svg>